<svg class="icon" viewBox="0 0 1027 1024" xmlns="http://www.w3.org/2000/svg" width="200" height="200"><path d="M1017.72 567.364l-43.76 16.453c-6.007 2.252-10.922 7.918-10.922 12.492 0 4.438 3.891 18.842 9.762 21.573l42.12 19.933c5.871 2.731 8.466 9.9 5.803 15.838l-43.964 97.553c-2.73 5.94-9.693 8.534-15.496 5.871l-42.189-19.934c-5.87-2.73-19.046 3.414-22.528 6.486-3.413 2.935-4.369 10.445-2.116 16.589l16.043 44.714c2.252 6.144-.888 13.04-6.895 15.36L805 857.43c-6.008 2.253-12.835-.955-14.95-7.168l-16.18-44.51c-2.185-6.212-15.906-11.332-20.344-11.605-4.437-.205-10.308 4.3-12.97 10.308L721.1 847.6c-2.73 5.94-9.694 8.602-15.565 5.803l-95.437-44.988c-5.734-2.663-8.397-9.899-5.666-15.838L623.89 749.5c2.73-5.94-3.345-19.525-6.349-22.938-2.867-3.481-10.24-4.437-16.247-2.184l-43.76 16.452c-5.938 2.253-12.765-.956-14.95-7.032l-36.317-100.83c-2.253-6.212.887-13.038 6.895-15.36l43.69-16.383c6.008-2.322 11.06-16.384 11.264-20.958.342-4.438-4.164-10.445-10.035-13.244l-42.189-19.866c-5.802-2.799-8.397-9.898-5.734-15.838l44.032-97.553c2.73-5.939 9.694-8.601 15.496-5.802l42.19 19.865c5.87 2.731 19.046-3.481 22.39-6.485 3.482-2.935 4.438-10.513 2.253-16.657L620.34 380.04c-2.184-6.213.888-13.04 6.895-15.36l98.577-37.138c6.076-2.252 12.766.888 15.087 7.032l16.043 44.715c2.253 6.212 15.974 11.264 20.412 11.537 4.505.341 10.376-4.301 13.038-10.309l19.456-43.144c2.663-5.94 9.626-8.533 15.497-5.871l95.369 44.988c5.87 2.73 8.396 9.898 5.734 15.838l-19.524 43.144c-2.594 5.94 3.413 19.456 6.348 23.006 2.936 3.482 10.24 4.506 16.316 2.184l43.623-16.452c6.075-2.253 12.834.956 15.018 7.1l36.386 100.693c2.253 6.213-.887 13.107-6.895 15.36zm-142.746-16.247c-22.323-61.782-89.43-93.457-149.914-70.588-60.552 22.801-91.477 91.477-69.222 153.259 22.391 61.85 89.497 93.525 150.05 70.724 60.416-22.801 91.41-91.477 69.086-153.395zm-414.379 296.14H143.087v-36.59h317.508v36.59zm-317.508-524.22h317.508v36.592H143.087v-36.591zm244.531 361.678H143.087v-36.591h244.531v36.59zM143.087 485.58h244.531v36.59H143.087v-36.59zM810.87 170.667c0-67.175-53.52-121.925-119.261-121.925H459.98c-57.548 0-105.744 41.916-116.803 97.553h253.132c80.487 0 147.866 58.642 163.499 136.26-15.701 1.912-31.266 5.462-46.694 9.9-11.128-55.501-59.324-97.417-116.805-97.417H166.98c-65.74 0-119.262 54.75-119.262 121.924v536.371c0 67.175 53.521 121.925 119.262 121.925h429.33c49.63 0 92.228-31.267 110.182-75.503 15.155 4.778 30.583 8.465 46.421 10.786C729.771 976.35 668.603 1024 596.31 1024H166.98C74.89 1024 0 947.405 0 853.333v-536.37c0-94.14 74.889-170.668 166.98-170.668h128.478C307.2 63.83 376.15 0 459.981 0H691.61C783.7 0 858.59 76.527 858.59 170.667v116.258c-15.701-3.277-31.608-5.393-47.719-6.144V170.667z"/></svg>