<svg width="22" height="22" xmlns="http://www.w3.org/2000/svg"><g fill="none" fill-rule="evenodd"><path fill="#FFF" d="M0 0h22v22H0z"/><g fill="#767676" fill-rule="nonzero"><path d="M4.7 5.316h11.6a1 1 0 011 1v5.706c.596.175 1.19.417 1.7.765v-7.47c0-.962-.765-1.75-1.7-1.75H3.7c-.935 0-1.7.788-1.7 1.75v9.934C2 16.212 2.765 17 3.7 17h5.1c0-.613.35-1.224.69-1.75H4.7a1 1 0 01-1-1V6.317a1 1 0 011-1z"/><path d="M9.375 8h-3.51a.866.866 0 000 1.731h8.936a.866.866 0 000-1.731H9.375zm-3.51 5.194h5.191c1.067-.867 2.657-1.732 4.61-1.732h-9.8a.866.866 0 000 1.732zm9.802-.12c-2.934 0-5.334 2.857-5.334 3.464 0 .604 2.4 3.462 5.334 3.462C18.6 20 21 16.97 21 16.536c0-.433-2.4-3.463-5.333-3.463zm0 5.805c-1.328 0-2.405-1.049-2.405-2.342 0-1.294 1.077-2.343 2.405-2.343 1.328 0 2.404 1.049 2.404 2.343 0 1.293-1.076 2.342-2.404 2.342z"/><path d="M15.71 18a1.5 1.5 0 100-3 1.5 1.5 0 000 3z"/></g></g></svg>