<svg width="22" height="22" xmlns="http://www.w3.org/2000/svg"><g fill="none" fill-rule="evenodd"><path fill="#FFF" d="M0 0h22v22H0z"/><path d="M16.639 6.78c.098-.096.208-.204.28-.328.536-.654.6-1.643.15-2.362C16.616 3.367 15.944 3 15.072 3H4.283c-.209 0-.425 0-.613.058-.46.11-.882.377-1.188.754A2.132 2.132 0 002 5.147c0 .62.24 1.169.677 1.547a329.556 329.556 0 014.113 3.992v4.344l.002.037c.073.572.515.884 1.05.659l.01-.005c.29-.142.456-.428.456-.786V10.47c0-.302-.095-.547-.281-.73-.67-.658-1.33-1.342-1.967-2.002a108.327 108.327 0 00-2.048-2.084l-.035-.035-.042-.02a.392.392 0 01-.048-.056 1.014 1.014 0 00-.055-.065c-.122-.155-.148-.286-.091-.463.1-.221.3-.475.542-.475h10.886c.132 0 .26.07.36.198a.667.667 0 01.123.576c-.027.106-.072.154-.208.288a374.21 374.21 0 00-4.446 4.32l-.008.007c-.154.15-.33.37-.33.73v7.508c0 .093 0 .353.193.56 0 0 .06.131.313.226.313.117.619-.016.619-.016l.08-.059c.313-.231.313-.59.313-.806v-7.1a99.12 99.12 0 012.278-2.14 90.967 90.967 0 002.183-2.05zm1.674 9.62h-4.112a.674.674 0 00-.686.673v.19c0 .423.348.675.686.675h4.112c.43 0 .687-.343.687-.674v-.19c0-.404-.276-.675-.687-.675zm0-2.424h-4.112a.674.674 0 00-.686.674v.143c0 .422.348.674.686.674h4.112c.43 0 .687-.343.687-.674v-.143a.674.674 0 00-.687-.674zm0-2.328h-4.112a.674.674 0 00-.686.674v.095c0 .422.348.674.686.674h4.112c.43 0 .687-.342.687-.674v-.095c0-.403-.276-.674-.687-.674z" fill="#767676" fill-rule="nonzero"/></g></svg>